<svg width="120" height="26" viewBox="0 0 120 26" fill="none" xmlns="http://www.w3.org/2000/svg">
<path d="M107.081 25.3894C103.516 25.3894 101.707 23.4677 101.707 19.6782C101.707 15.5588 103.516 13.4701 107.081 13.4701H114.941V12.869C114.941 11.2793 113.66 10.5685 112.391 10.5685L103.504 10.5705L103.697 10.1495C103.93 9.04987 104.717 6.47272 106.929 6.47272H114.911C118.667 6.47272 120 9.62937 120 12.3327V19.2873C119.959 22.1024 118.434 25.3893 114.272 25.3893L107.081 25.3894ZM102.205 19.6782C102.205 23.1337 103.846 24.8853 107.081 24.8853H114.272C118.071 24.8853 119.463 21.8676 119.502 19.2834V12.333C119.502 9.86249 118.299 6.97759 114.911 6.97759H106.929C106.336 6.97759 104.891 7.27939 104.222 10.0663L112.391 10.0642C113.908 10.0642 115.44 10.9315 115.44 12.8693V13.9745H107.081C103.846 13.9741 102.205 15.8928 102.205 19.6782ZM46.3607 25.3894C42.6043 25.3894 41.2709 22.2332 41.2709 19.5294V12.5752C41.3124 9.75915 42.8373 6.47272 46.9989 6.47272H54.1894C57.755 6.47272 59.5624 8.39441 59.5624 12.1843C59.5624 16.3032 57.755 18.3914 54.1894 18.3914H46.33V18.992C46.33 20.5827 47.6101 21.2939 48.8799 21.2939L58.7271 21.2904L58.5437 21.7107C58.3101 22.8114 57.5224 25.3895 55.3099 25.3895L46.3607 25.3894ZM41.7693 12.5793V19.5296C41.7693 22.0001 42.972 24.8855 46.3607 24.8855H55.31C55.9034 24.8855 57.3491 24.5832 58.017 21.7953L48.8799 21.7983C47.3622 21.7983 45.831 20.931 45.831 18.9923V17.8868H54.1894C57.4245 17.8868 59.0645 15.9682 59.0645 12.1843C59.0645 8.72881 57.4243 6.97728 54.1894 6.97728H46.9989C43.2001 6.97728 41.8076 9.99493 41.7693 12.5793ZM93.8625 25.3436V6.47877H98.7958V25.343L93.8625 25.3436ZM94.3609 24.839H98.2974V6.98333H94.3609V24.839ZM80.4413 25.3436C78.5479 25.3436 77.1445 24.6459 76.2718 23.27C75.5155 22.0778 75.3082 20.5903 75.2684 19.5386H75.2674L75.262 19.4976L75.2595 19.2873L75.2679 12.3654C75.3315 10.8356 75.8176 9.43358 76.639 8.41502C77.6533 7.1574 79.1014 6.51854 80.9445 6.51854H91.4323L91.3846 6.81132C91.3603 6.96273 90.7629 10.5167 88.1742 10.5167H82.658C81.1581 10.5167 80.2259 11.7603 80.2259 13.7624V18.8447C80.2259 21.0943 82.0343 21.3378 82.8121 21.3378H91.4457L91.3821 21.6422C91.3513 21.7931 90.587 25.3436 88.1743 25.3436H80.4413ZM75.7608 12.5793L75.7583 12.7367V19.1944L75.7608 19.2819C75.7995 21.8178 76.6424 24.8391 80.4416 24.8391H88.1743C88.5977 24.8391 90.0349 24.6223 90.8176 21.842H82.8121C82.0885 21.842 79.728 21.6262 79.728 18.8448V13.7624C79.728 11.4494 80.8506 10.0116 82.6581 10.0116H88.1744C89.9535 10.0116 90.6449 7.7902 90.8306 7.023H80.9445C77.1814 7.023 75.8 10.0162 75.7608 12.5793ZM66.7723 25.3436C64.0102 25.3436 62.0055 23.352 62.0055 20.6075V4.203C62.0074 0.372222 66.6341 0.0205024 66.6809 0.0181446L66.9458 0L66.9468 18.5876C66.9468 20.8523 67.063 21.3312 70.4027 21.3312H74.0111L73.9579 21.6295C73.9305 21.781 73.2627 25.3436 70.7475 25.3436H66.7723ZM62.5034 4.203V20.6079C62.5034 23.0598 64.2994 24.839 66.7723 24.839H70.7475C72.473 24.839 73.2 22.6075 73.3993 21.8363H70.4026C66.813 21.8363 66.4483 21.2206 66.4483 18.5876L66.4473 0.54885C62.7912 1.02574 62.5039 3.46491 62.5034 4.203ZM32.7116 25.3436C29.9496 25.3436 27.9448 23.352 27.9448 20.6075V4.203C27.946 0.372222 32.5726 0.0205024 32.6194 0.0181446L32.8843 0V6.51854H37.9193V10.5233H32.8847V18.5876C32.8847 20.8523 33.0009 21.3312 36.341 21.3312H39.9797L39.8923 21.6512C39.8513 21.8016 38.8626 25.3436 36.6864 25.3436H32.7116ZM28.4429 4.203V20.6079C28.4429 23.0598 30.2384 24.839 32.7118 24.839H36.686C38.1575 24.839 39.0471 22.611 39.311 21.8363H36.3406C32.7505 21.8363 32.3863 21.2206 32.3863 18.5876V10.0187H37.4204V7.023H32.3868V0.548747C28.7297 1.02574 28.4429 3.46491 28.4429 4.203ZM2.16521e-05 25.092V12.1254C2.16521e-05 8.0105 5.00835 6.78159 5.00835 6.78159V25.092H2.16521e-05ZM19.6294 25.092V14.0339C19.6294 12.2209 18.7333 10.8622 16.7196 10.8622H13.8846V25.0916H8.65307V6.78159H18.061C18.061 6.78159 24.4509 7.00394 24.4509 12.2211V25.0916L19.6294 25.092ZM108.358 21.7981C107.731 21.7981 107.238 21.6215 106.892 21.2734C106.328 20.7015 106.33 19.8618 106.331 19.4584C106.331 18.8367 106.69 17.0624 108.282 17.0624H115.439V18.2808C115.439 20.4832 114.296 21.7981 112.382 21.7981H108.358ZM106.83 19.4287C106.83 19.8014 106.828 20.4941 107.245 20.9168C107.493 21.1673 107.868 21.294 108.358 21.294H112.382C114.033 21.294 114.941 20.2235 114.941 18.2808V17.5665H108.283C107.096 17.5665 106.83 18.9453 106.83 19.4282V19.4287ZM45.8309 14.8002V13.5818C45.8309 11.3789 46.9739 10.064 48.8892 10.064H52.9126C53.5412 10.064 54.0342 10.2406 54.3785 10.5892C54.9406 11.1597 54.9406 11.9987 54.9406 12.4017C54.9406 13.024 54.5818 14.8005 52.988 14.8005L45.8309 14.8002ZM46.3299 13.5818V14.2961H52.9876C54.1748 14.2961 54.4422 12.9163 54.4422 12.4324C54.4422 12.0611 54.4422 11.3689 54.0252 10.9459C53.7778 10.6954 53.4035 10.5687 52.9126 10.5687H48.8893C47.2388 10.569 46.33 11.6385 46.33 13.5818H46.3299ZM5.00487 6.78159H2.16521e-05V1.30744C-0.000856155 1.17195 0.0249648 1.03762 0.0760099 0.912114C0.127055 0.786607 0.202324 0.672386 0.297519 0.575973C0.392713 0.47956 0.505968 0.402844 0.630815 0.350207C0.755662 0.29757 0.889656 0.270042 1.02514 0.269197H3.98159C4.11723 0.269935 4.25139 0.297394 4.37641 0.350006C4.50144 0.402617 4.61486 0.479348 4.71022 0.575816C4.80557 0.672283 4.88098 0.786595 4.93214 0.912218C4.98329 1.03784 5.00919 1.17231 5.00835 1.30795V6.7821L5.00487 6.78159Z" fill="white"/>
</svg>
