<svg width="40" height="40" viewBox="0 0 40 40" fill="none" xmlns="http://www.w3.org/2000/svg">
<path d="M20 0C8.95417 0 0 8.95417 0 20C0 31.0458 8.95417 40 20 40C31.0458 40 40 31.0458 40 20C40 8.95417 31.0458 0 20 0ZM15.1042 28.2875H11.0542V15.2542H15.1042V28.2875ZM13.0542 13.6583C11.775 13.6583 10.95 12.7542 10.95 11.6333C10.95 10.5125 11.8042 9.60833 13.1083 9.60833C14.4125 9.60833 15.2125 10.4875 15.2417 11.6333C15.2417 12.7542 14.4167 13.6583 13.0583 13.6583H13.0542ZM29.8958 28.2875H25.8458V21.0667C25.8458 19.3875 25.2583 18.2417 23.7958 18.2417C22.675 18.2417 22.0125 19.0167 21.7167 19.7625C21.6083 20.0292 21.5833 20.4042 21.5833 20.775V28.2917H17.5333V19.4167C17.5333 17.7917 17.4792 16.4333 17.425 15.2583H20.9417L21.1292 17.0708H21.2083C21.7417 16.2167 23.0458 14.9667 25.2333 14.9667C27.9 14.9667 29.8958 16.7542 29.8958 20.5917V28.2958V28.2875Z" fill="white"/>
</svg>
