<svg width="200" height="29" viewBox="0 0 200 29" fill="none" xmlns="http://www.w3.org/2000/svg">
<path d="M183.409 18.4504C183.394 22.3612 185.909 25.0542 189.641 25.122C193.298 25.1863 195.988 22.422 196.013 18.5683C196.038 14.6146 193.459 11.8753 189.712 11.8681C185.991 11.861 183.419 14.5468 183.409 18.4504ZM199.998 28.2364H196.966C196.88 27.6042 196.798 26.9899 196.702 26.2542C195.116 27.4757 193.398 28.2221 191.488 28.5328C186.059 29.4186 181.159 26.5256 179.766 21.4327C178.341 16.2325 180.48 9.91095 187.43 8.5252C193.191 7.37517 198.995 10.4181 199.931 16.7968C199.952 16.9468 199.998 17.0968 199.998 17.2433C200.002 20.8755 199.998 24.5077 199.998 28.2328" fill="white"/>
<path d="M16.4333 16.7683C15.819 14.3039 14.4369 12.6646 12.0332 12.0896C9.53674 11.4931 7.25811 11.9824 5.54022 14.0146C4.18661 15.6111 3.83303 17.504 4.11518 19.6148C8.29742 18.6504 12.3154 17.7219 16.4333 16.7683ZM4.90806 21.9184C5.92237 23.6434 7.34026 24.6363 9.18673 24.7792C11.3868 24.9506 13.6011 24.9113 15.8119 24.947C16.9262 24.9649 18.0441 24.9506 19.2191 24.9506V28.4293C19.1584 28.4685 19.1084 28.5328 19.0584 28.5328C15.3369 28.4578 11.5618 28.74 7.90813 28.2114C2.00084 27.3542 -0.467071 22.072 0.0722277 17.1647C0.518667 13.0825 3.21159 9.44309 8.12956 8.55021C14.1976 7.45018 19.5691 10.8288 20.5049 17.3647C20.5477 17.6576 20.5084 17.9647 20.5084 18.3683C15.3404 19.5433 10.1689 20.7219 4.90806 21.922" fill="white"/>
<path d="M55.245 11.8717C51.5449 11.8717 48.9019 14.6075 48.8948 18.4612C48.8877 22.3398 51.5913 25.1649 55.2771 25.1256C58.9593 25.0827 61.6094 22.2934 61.5951 18.4719C61.5808 14.6253 58.9343 11.8753 55.2414 11.8753M55.2307 28.6364C49.1305 28.6328 44.8626 24.4184 44.8876 18.4254C44.909 12.5324 49.2591 8.27519 55.2485 8.28591C61.2772 8.29662 65.6381 12.611 65.6059 18.5397C65.5738 24.472 61.2915 28.64 55.2307 28.6364Z" fill="white"/>
<path d="M149.09 19.679C149.097 15.5575 147.654 13.2396 145.236 12.3003C142.147 11.1038 138.736 12.3003 137.265 15.1004C135.658 18.1504 136.475 22.2148 139.126 23.9934C141.265 25.4256 143.579 25.5292 145.84 24.3649C148.169 23.1648 149.072 21.0505 149.09 19.679ZM132.461 18.4397C132.493 12.5039 136.786 8.23947 142.793 8.29662C149.097 8.35733 153.226 12.7467 153.126 18.7076C153.029 24.5434 148.765 28.6614 142.704 28.6364C136.658 28.6114 132.433 24.4041 132.461 18.4397Z" fill="white"/>
<path d="M159.947 28.2328H155.955V8.77521H159.087C159.165 9.74666 159.247 10.7288 159.326 11.7396C159.405 11.711 159.508 11.7074 159.547 11.6538C161.508 8.9895 164.305 8.2502 167.401 8.36806C173.048 8.58592 176.591 13.2396 176.562 18.2647C176.544 21.5612 176.562 24.8577 176.562 28.2114H172.455V27.2149C172.455 24.4613 172.487 21.7041 172.437 18.9505C172.419 17.9933 172.348 16.9968 172.066 16.0897C171.191 13.2753 168.669 11.6896 165.687 11.9467C162.719 12.2074 160.64 14.1218 160.19 17.0718C160.055 17.9611 160.022 18.8755 160.015 19.779C159.99 22.5041 160.005 25.2292 159.997 27.9542C159.997 28.0114 159.976 28.0721 159.944 28.2292" fill="white"/>
<path d="M96.6531 28.2221C96.5852 27.2149 96.5245 26.2613 96.4495 25.122C96.1781 25.422 96.0209 25.5756 95.8888 25.747C92.6458 29.9079 82.6813 30.3222 79.8241 22.2541C79.4777 21.2755 79.2777 20.1969 79.2527 19.1576C79.1741 15.9182 79.2062 12.6789 79.1991 9.43951C79.1991 9.23236 79.2419 9.02879 79.2705 8.77164H83.2885V9.77166C83.2885 12.7074 83.267 15.6468 83.2956 18.5826C83.3313 21.8469 85.0492 24.097 88.0172 24.8577C91.7172 25.8042 95.3102 23.4363 95.5959 19.6183C95.8352 16.4254 95.7173 13.2075 95.7531 10.0002C95.7566 9.61094 95.7531 9.22165 95.7531 8.77521H99.7781V28.2221H96.6566H96.6531Z" fill="white"/>
<path d="M119.775 8.41806V11.961C118.257 11.961 116.754 11.9217 115.254 11.9717C113.839 12.0217 112.386 11.9896 111.021 12.3039C108.511 12.8824 106.789 15.1611 106.728 17.7326C106.707 18.6612 106.725 19.6219 106.943 20.5148C107.589 23.1541 109.928 24.9506 112.65 24.9935C114.711 25.022 116.771 25.0042 118.832 25.0042H119.771V28.4935C119.714 28.5328 119.668 28.5971 119.618 28.5971C116.832 28.5685 114.021 28.7685 111.268 28.4471C105.893 27.8257 102.585 23.7434 102.635 18.3326C102.689 12.5717 106.778 8.68949 111.936 8.44663C114.525 8.32163 117.129 8.4252 119.771 8.4252" fill="white"/>
<path d="M76.1562 24.8542V28.44C72.2275 29.0686 70.3025 27.5649 70.1775 24.0006C70.0382 20.0433 70.1168 16.0754 70.1096 12.1146C70.1025 8.4252 70.1096 4.73226 70.1096 1.04288V0H74.3133V21.4505C74.3133 21.7541 74.3133 22.0577 74.3133 22.3577C74.3312 24.2149 74.399 24.3077 76.1526 24.8506" fill="white"/>
<path d="M129.493 28.5864C128.65 28.5864 127.922 28.6293 127.204 28.5793C125.336 28.44 124.104 27.3292 123.657 25.372C123.511 24.7292 123.45 24.0542 123.447 23.3934C123.429 18.704 123.432 14.0146 123.432 9.32523C123.432 9.17523 123.454 9.02522 123.468 8.80022H127.618V9.77524C127.618 14.0111 127.618 18.2469 127.618 22.4827C127.618 24.122 127.857 24.4006 129.49 24.7292V28.5864H129.493Z" fill="white"/>
<path d="M125.718 5.87514C124.025 5.80014 122.875 4.6894 122.922 3.17508C122.975 1.56433 124.243 0.521445 126.022 0.621447C127.69 0.717878 128.757 1.78219 128.711 3.30008C128.657 4.88583 127.422 5.95015 125.718 5.87514Z" fill="white"/>
<path d="M39.3196 5.87871L36.4945 19.7469C35.3731 24.4899 32.1551 25.1185 28.7051 25.1185V8.78949H24.655V28.7757C27.4264 28.6078 30.1694 28.6578 32.8337 28.2257C37.0052 27.5507 39.116 25.7328 40.4625 20.3398C41.3875 16.6325 42.2589 11.8396 43.5483 5.88228" fill="#4E62AB"/>
</svg>
