<svg width="15" height="15" viewBox="0 0 15 15" fill="none" xmlns="http://www.w3.org/2000/svg">
<path d="M14.663 12.6919L11.076 9.10501C11.6172 8.21634 11.9286 7.17197 11.9286 6.05545C11.9286 2.8103 9.1183 0 5.87316 0C2.62801 0 0 2.62991 0 5.87316C0 9.1164 2.8103 11.9267 6.05355 11.9267C7.1321 11.9267 8.14229 11.6343 9.01007 11.1273L12.6179 14.7351C12.9711 15.0883 13.5426 15.0883 13.8958 14.7351L14.7902 13.8408C15.1434 13.4876 15.0161 13.0432 14.663 12.69V12.6919ZM1.80771 5.87316C1.80771 3.62681 3.62871 1.80581 5.87316 1.80581C8.1176 1.80581 10.1209 3.8072 10.1209 6.05355C10.1209 8.29989 8.29989 10.1209 6.05355 10.1209C3.8072 10.1209 1.80581 8.1195 1.80581 5.87316H1.80771Z" fill="white"/>
</svg>
